<?xml version="1.0" standalone="no"?>
<!DOCTYPE svg PUBLIC "-//W3C//DTD SVG 20010904//EN"
 "http://www.w3.org/TR/2001/REC-SVG-20010904/DTD/svg10.dtd">
<svg version="1.0" xmlns="http://www.w3.org/2000/svg"
 width="1024.000000pt" height="1024.000000pt" viewBox="0 0 1024.000000 1024.000000"
 preserveAspectRatio="xMidYMid meet">

<g transform="translate(0.000000,1024.000000) scale(0.100000,-0.100000)"
fill="#000000" stroke="none">
<path d="M4835 10054 c-155 -10 -396 -38 -555 -65 -1573 -264 -2934 -1288
-3631 -2734 -245 -509 -400 -1056 -465 -1650 -25 -222 -25 -765 -1 -985 66
-598 220 -1144 466 -1655 697 -1447 2058 -2470 3633 -2735 312 -52 471 -64
828 -64 357 0 516 12 828 64 2066 347 3709 1990 4051 4050 55 328 65 461 65
830 0 367 -11 511 -65 830 -263 1573 -1288 2934 -2734 3631 -507 244 -1066
402 -1645 464 -138 15 -644 27 -775 19z m856 -755 c26 -6 60 -34 121 -97 243
-252 461 -589 709 -1097 108 -222 235 -512 227 -520 -1 -2 -34 3 -73 10 -253
48 -671 97 -998 117 l-207 12 0 801 0 801 93 -9 c50 -4 108 -12 128 -18z
m-921 -779 l0 -800 -67 0 c-216 0 -775 -59 -1107 -116 -48 -8 -90 -13 -93 -10
-10 10 154 377 272 611 234 465 453 792 677 1012 82 81 84 82 148 91 36 5 89
10 118 11 l52 1 0 -800z m-1262 449 c-241 -363 -464 -853 -623 -1368 l-51
-164 -174 -53 c-515 -154 -993 -370 -1392 -627 -67 -43 -68 -53 12 123 92 205
239 459 384 665 136 193 272 352 470 551 310 310 574 510 951 720 123 69 455
226 463 219 1 -1 -16 -31 -40 -66z m3477 -59 c695 -336 1321 -901 1737 -1570
97 -156 199 -348 267 -502 34 -76 61 -140 61 -143 0 -2 -34 18 -76 47 -360
241 -869 476 -1364 628 -74 22 -135 42 -137 43 -1 2 -23 73 -48 158 -60 200
-158 469 -241 661 -113 261 -201 428 -396 745 l-20 33 49 -21 c26 -12 102 -48
168 -79z m-2215 -2570 l0 -880 -891 0 -891 0 7 83 c28 352 84 691 166 1017 49
197 96 361 106 371 15 14 362 108 564 153 272 60 596 109 859 129 25 2 53 4
63 5 16 2 17 -46 17 -878z m945 854 c206 -20 473 -64 695 -114 181 -40 559
-145 572 -158 14 -14 97 -319 142 -523 62 -282 100 -533 130 -876 l6 -63 -895
0 -895 0 0 880 0 880 43 -5 c23 -3 114 -12 202 -21z m-3049 -501 c-49 -228
-126 -944 -126 -1165 l0 -68 -816 0 -817 0 7 91 c4 51 13 104 21 118 7 15 51
63 97 107 246 236 580 453 1071 695 192 94 535 247 560 248 5 1 6 -11 3 -26z
m5239 -119 c279 -122 616 -305 865 -469 201 -132 331 -237 456 -367 108 -112
114 -125 114 -239 l0 -39 -790 0 -790 0 0 68 c0 178 -49 686 -95 976 -14 88
-25 165 -25 172 0 13 19 6 265 -102z m-5357 -2021 c20 -329 69 -747 118 -1003
22 -117 23 -113 -38 -89 -171 67 -393 168 -603 274 -465 234 -799 458 -1011
676 l-81 84 -12 105 c-6 58 -13 117 -15 133 l-3 27 817 0 816 0 12 -207z
m2222 -699 l0 -906 -82 7 c-441 36 -874 116 -1307 243 l-93 27 -19 60 c-90
285 -189 719 -229 1004 -16 113 -50 428 -50 463 0 4 400 8 890 8 l890 0 0
-906z m2485 864 c-3 -24 -12 -115 -21 -203 -33 -336 -102 -684 -207 -1059 -56
-197 -64 -219 -87 -228 -14 -5 -119 -36 -235 -68 -230 -63 -547 -130 -764
-160 -113 -16 -428 -50 -463 -50 -4 0 -8 407 -8 905 l0 905 895 0 895 0 -5
-42z m2084 -35 c-16 -164 -10 -152 -119 -262 -232 -234 -555 -451 -1035 -693
-180 -91 -556 -261 -562 -254 -2 1 4 36 11 77 49 255 98 673 118 1002 l12 207
791 0 791 0 -7 -77z m-320 -1245 c-344 -796 -928 -1475 -1659 -1930 -188 -117
-454 -254 -598 -309 -26 -10 -28 -15 32 76 239 360 479 887 626 1380 23 77 45
143 49 147 3 4 67 26 141 48 496 153 1036 402 1370 633 36 25 68 46 72 46 3 1
-11 -41 -33 -91z m-7579 -80 c333 -199 817 -405 1240 -528 80 -23 150 -47 156
-54 6 -6 28 -67 49 -136 142 -480 388 -1017 632 -1381 70 -105 68 -100 41 -90
-254 96 -613 292 -873 475 -370 261 -760 651 -1021 1021 -146 208 -291 459
-387 670 -81 179 -80 174 -10 129 32 -21 110 -69 173 -106z m5230 -905 c-207
-484 -477 -960 -708 -1248 -94 -118 -270 -292 -304 -300 -12 -3 -60 -9 -105
-13 l-83 -8 0 806 0 806 207 12 c323 20 723 66 989 115 38 7 70 9 72 5 2 -4
-29 -83 -68 -175z m-2945 142 c292 -46 799 -95 978 -95 l67 0 0 -806 0 -807
-92 7 c-54 4 -103 13 -115 22 -43 28 -205 196 -283 295 -251 315 -525 811
-766 1388 l-14 33 33 -6 c17 -3 104 -17 192 -31z"/>
</g>
</svg>
